# xmcd CD database file
#
# Track frame offsets:
#	150
#	23888
#	35558
#	49005
#	60971
#	77448
#	88807
#	102635
#	120624
#	132511
#	147992
#	161121
#	176330
#	189367
#	201633
#	215708
#	231828
#	249353
#	263048
#	276451
#	289559
#	303682
#	319811
#	332638
#	343026
#
# Disc length: 4724 seconds
#
# Revision: 1
# Processed by: cddbd v1.5.2PL0 Copyright (c) Steve Scherf et al.
# Submitted via: CDex 1.70beta2
#
DISCID=7e127219
DTITLE=Various Artist - Tros Country Top 100
DYEAR=2009
DGENRE=Country
TTITLE0=Dolly Parton - You Are
TTITLE1=Freddy Fender - Before The Next Teardrop Falls
TTITLE2=Kenny Rogers - Ruby Don't Take Your Love To Town
TTITLE3=Guy Mitchell - Heartaches By The Number
TTITLE4=Rita Coolidge - We're All Alone
TTITLE5=Don Gibson - Oh,Lonesome Me
TTITLE6=Mac Davis - Baby Don't Get Hooked On Me
TTITLE7=Trisha Yearwood - How Do I Live
TTITLE8=Johnny Paycheck - Take This Job And Shove It
TTITLE9=B.J. Thomas - Whatever Happend To Old Fashioned Love
TTITLE10=The Tumbleweeds - Somewhere Between
TTITLE11=Brooks and Dunn - Ain't Nothing Bout You
TTITLE12=Martina McBride - I Love You
TTITLE13=Clint Black - A Good Run Of Bad Luck
TTITLE14=George Jones - The Grand Tour
TTITLE15=Billie Jo Spears - Blanket On The Ground
TTITLE16=Eddie Rabbit and Juice Newton - Both To Each Other (Friends and Lovers)
TTITLE17=Merle Haggard - That's The Way Love Goes
TTITLE18=Janie Fricke - He's A Heartache (Looking For A Place To Happen)
TTITLE19=Larry Gatlin and The Gatlin Brothers - Houston (Means I'm One Day Closer To You)
TTITLE20=Charlie McCoy - I Really Don't Want To Know
TTITLE21=Patty Loveless - Blame It On Your Heart
TTITLE22=Johnny Horton - North To Alaska
TTITLE23=Connie Smith - Once A Day
TTITLE24=Waylon Jennings and Willie Nelson - Mamas Don't Let Your Babies Grow Up To Be Cowboys
EXTD=YEAR: 2009
EXTT0=
EXTT1=
EXTT2=
EXTT3=
EXTT4=
EXTT5=
EXTT6=
EXTT7=
EXTT8=
EXTT9=
EXTT10=
EXTT11=
EXTT12=
EXTT13=
EXTT14=
EXTT15=
EXTT16=
EXTT17=
EXTT18=
EXTT19=
EXTT20=
EXTT21=
EXTT22=
EXTT23=
EXTT24=
PLAYORDER=
